<?xml version="1.0" encoding="UTF-8" standalone="no"?>
<!DOCTYPE svg PUBLIC "-//W3C//DTD SVG 1.1//EN"
 "http://www.w3.org/Graphics/SVG/1.1/DTD/svg11.dtd">
<!-- Generated by graphviz version 2.38.0 (20140413.2041)
 -->
<!-- Title: Network Pages: 1 -->
<svg width="513pt" height="218pt"
 viewBox="0.00 0.00 512.55 217.82" xmlns="http://www.w3.org/2000/svg" xmlns:xlink="http://www.w3.org/1999/xlink">
<g id="graph0" class="graph" transform="scale(1 1) rotate(0) translate(4 213.823)">
<title>Network</title>
<polygon fill="white" stroke="none" points="-4,4 -4,-213.823 508.545,-213.823 508.545,4 -4,4"/>
<!-- d1 -->
<g id="node1" class="node"><title>d1</title>
<ellipse fill="#00bbff" stroke="black" cx="83.2727" cy="-25.4558" rx="67.8626" ry="25.4118"/>
<text text-anchor="middle" x="83.2727" y="-28.2558" font-family="Times,serif" font-size="14.00">DataSequence</text>
<text text-anchor="middle" x="83.2727" y="-14.2558" font-family="Times,serif" font-size="14.00">(image)</text>
</g>
<!-- IntermediateLayers1 -->
<g id="node4" class="node"><title>IntermediateLayers1</title>
<ellipse fill="none" stroke="black" cx="83.2727" cy="-112.368" rx="83.046" ry="18"/>
<text text-anchor="middle" x="83.2727" y="-108.168" font-family="Times,serif" font-size="14.00">IntermediateLayers1</text>
</g>
<!-- d1&#45;&gt;IntermediateLayers1 -->
<g id="edge1" class="edge"><title>d1&#45;&gt;IntermediateLayers1</title>
<path fill="none" stroke="black" d="M83.2727,-51.0158C83.2727,-61.375 83.2727,-73.4742 83.2727,-84.1081"/>
<polygon fill="black" stroke="black" points="79.7728,-84.1348 83.2727,-94.1348 86.7728,-84.1349 79.7728,-84.1348"/>
</g>
<!-- d2 -->
<g id="node2" class="node"><title>d2</title>
<ellipse fill="#00bbff" stroke="black" cx="421.273" cy="-25.4558" rx="67.8626" ry="25.4118"/>
<text text-anchor="middle" x="421.273" y="-28.2558" font-family="Times,serif" font-size="14.00">DataSequence</text>
<text text-anchor="middle" x="421.273" y="-14.2558" font-family="Times,serif" font-size="14.00">(image)</text>
</g>
<!-- IntermediateLayers2 -->
<g id="node5" class="node"><title>IntermediateLayers2</title>
<ellipse fill="none" stroke="black" cx="421.273" cy="-112.368" rx="83.046" ry="18"/>
<text text-anchor="middle" x="421.273" y="-108.168" font-family="Times,serif" font-size="14.00">IntermediateLayers2</text>
</g>
<!-- d2&#45;&gt;IntermediateLayers2 -->
<g id="edge2" class="edge"><title>d2&#45;&gt;IntermediateLayers2</title>
<path fill="none" stroke="black" d="M421.273,-51.0158C421.273,-61.375 421.273,-73.4742 421.273,-84.1081"/>
<polygon fill="black" stroke="black" points="417.773,-84.1348 421.273,-94.1348 424.773,-84.1349 417.773,-84.1348"/>
</g>
<!-- d3 -->
<g id="node3" class="node"><title>d3</title>
<ellipse fill="#00bbff" stroke="black" cx="252.273" cy="-112.368" rx="67.8626" ry="25.4118"/>
<text text-anchor="middle" x="252.273" y="-115.168" font-family="Times,serif" font-size="14.00">DataSequence</text>
<text text-anchor="middle" x="252.273" y="-101.168" font-family="Times,serif" font-size="14.00">(binary)</text>
</g>
<!-- ConstrastiveLoss -->
<g id="node6" class="node"><title>ConstrastiveLoss</title>
<ellipse fill="none" stroke="black" cx="252.273" cy="-191.823" rx="71.0531" ry="18"/>
<text text-anchor="middle" x="252.273" y="-187.623" font-family="Times,serif" font-size="14.00">ConstrastiveLoss</text>
</g>
<!-- d3&#45;&gt;ConstrastiveLoss -->
<g id="edge5" class="edge"><title>d3&#45;&gt;ConstrastiveLoss</title>
<path fill="none" stroke="black" d="M252.273,-137.875C252.273,-145.887 252.273,-154.843 252.273,-163.076"/>
<polygon fill="black" stroke="black" points="248.773,-163.344 252.273,-173.344 255.773,-163.344 248.773,-163.344"/>
</g>
<!-- IntermediateLayers1&#45;&gt;ConstrastiveLoss -->
<g id="edge3" class="edge"><title>IntermediateLayers1&#45;&gt;ConstrastiveLoss</title>
<path fill="none" stroke="black" d="M117.066,-128.856C143.808,-141.112 181.301,-158.296 210.024,-171.46"/>
<polygon fill="black" stroke="black" points="208.851,-174.773 219.4,-175.757 211.768,-168.409 208.851,-174.773"/>
</g>
<!-- IntermediateLayers2&#45;&gt;ConstrastiveLoss -->
<g id="edge4" class="edge"><title>IntermediateLayers2&#45;&gt;ConstrastiveLoss</title>
<path fill="none" stroke="black" d="M387.479,-128.856C360.738,-141.112 323.245,-158.296 294.521,-171.46"/>
<polygon fill="black" stroke="black" points="292.777,-168.409 285.145,-175.757 295.694,-174.773 292.777,-168.409"/>
</g>
</g>
</svg>
