<?xml version="1.0" encoding="UTF-8" standalone="no"?>
<!DOCTYPE svg PUBLIC "-//W3C//DTD SVG 1.1//EN"
 "http://www.w3.org/Graphics/SVG/1.1/DTD/svg11.dtd">
<!-- Generated by graphviz version 2.38.0 (20140413.2041)
 -->
<!-- Title: Network Pages: 1 -->
<svg width="320pt" height="218pt"
 viewBox="0.00 0.00 319.78 217.82" xmlns="http://www.w3.org/2000/svg" xmlns:xlink="http://www.w3.org/1999/xlink">
<g id="graph0" class="graph" transform="scale(1 1) rotate(0) translate(4 213.823)">
<title>Network</title>
<polygon fill="white" stroke="none" points="-4,4 -4,-213.823 315.782,-213.823 315.782,4 -4,4"/>
<!-- d1 -->
<g id="node1" class="node"><title>d1</title>
<ellipse fill="#00bbff" stroke="black" cx="78.851" cy="-25.4558" rx="67.8626" ry="25.4118"/>
<text text-anchor="middle" x="78.851" y="-28.2558" font-family="Times,serif" font-size="14.00">DataSequence</text>
<text text-anchor="middle" x="78.851" y="-14.2558" font-family="Times,serif" font-size="14.00">(image)</text>
</g>
<!-- IntermediateLayers -->
<g id="node3" class="node"><title>IntermediateLayers</title>
<ellipse fill="none" stroke="black" cx="78.851" cy="-112.368" rx="78.7022" ry="18"/>
<text text-anchor="middle" x="78.851" y="-108.168" font-family="Times,serif" font-size="14.00">IntermediateLayers</text>
</g>
<!-- d1&#45;&gt;IntermediateLayers -->
<g id="edge1" class="edge"><title>d1&#45;&gt;IntermediateLayers</title>
<path fill="none" stroke="black" d="M78.851,-51.0158C78.851,-61.375 78.851,-73.4742 78.851,-84.1081"/>
<polygon fill="black" stroke="black" points="75.3511,-84.1348 78.851,-94.1348 82.3511,-84.1349 75.3511,-84.1348"/>
</g>
<!-- d2 -->
<g id="node2" class="node"><title>d2</title>
<ellipse fill="#00bbff" stroke="black" cx="243.851" cy="-112.368" rx="67.8626" ry="25.4118"/>
<text text-anchor="middle" x="243.851" y="-115.168" font-family="Times,serif" font-size="14.00">DataSequence</text>
<text text-anchor="middle" x="243.851" y="-101.168" font-family="Times,serif" font-size="14.00">(label)</text>
</g>
<!-- LossLayer -->
<g id="node4" class="node"><title>LossLayer</title>
<ellipse fill="none" stroke="black" cx="160.851" cy="-191.823" rx="47.365" ry="18"/>
<text text-anchor="middle" x="160.851" y="-187.623" font-family="Times,serif" font-size="14.00">LossLayer</text>
</g>
<!-- d2&#45;&gt;LossLayer -->
<g id="edge3" class="edge"><title>d2&#45;&gt;LossLayer</title>
<path fill="none" stroke="black" d="M219.397,-136.188C208.7,-146.17 196.174,-157.86 185.459,-167.859"/>
<polygon fill="black" stroke="black" points="182.953,-165.411 178.03,-174.792 187.729,-170.528 182.953,-165.411"/>
</g>
<!-- IntermediateLayers&#45;&gt;LossLayer -->
<g id="edge2" class="edge"><title>IntermediateLayers&#45;&gt;LossLayer</title>
<path fill="none" stroke="black" d="M96.6437,-130.174C108.268,-141.154 123.603,-155.64 136.371,-167.7"/>
<polygon fill="black" stroke="black" points="134.261,-170.521 143.934,-174.843 139.067,-165.432 134.261,-170.521"/>
</g>
</g>
</svg>
