<?xml version="1.0" encoding="UTF-8" standalone="no"?>
<!DOCTYPE svg PUBLIC "-//W3C//DTD SVG 1.1//EN"
 "http://www.w3.org/Graphics/SVG/1.1/DTD/svg11.dtd">
<!-- Generated by graphviz version 2.38.0 (20140413.2041)
 -->
<!-- Title: Network Pages: 1 -->
<svg width="474pt" height="218pt"
 viewBox="0.00 0.00 473.86 217.82" xmlns="http://www.w3.org/2000/svg" xmlns:xlink="http://www.w3.org/1999/xlink">
<g id="graph0" class="graph" transform="scale(1 1) rotate(0) translate(4 213.823)">
<title>Network</title>
<polygon fill="white" stroke="none" points="-4,4 -4,-213.823 469.863,-213.823 469.863,4 -4,4"/>
<!-- d1 -->
<g id="node1" class="node"><title>d1</title>
<ellipse fill="#00bbff" stroke="black" cx="232.931" cy="-25.4558" rx="67.8626" ry="25.4118"/>
<text text-anchor="middle" x="232.931" y="-28.2558" font-family="Times,serif" font-size="14.00">DataSequence</text>
<text text-anchor="middle" x="232.931" y="-14.2558" font-family="Times,serif" font-size="14.00">(image)</text>
</g>
<!-- IntermediateLayers -->
<g id="node4" class="node"><title>IntermediateLayers</title>
<ellipse fill="none" stroke="black" cx="232.931" cy="-112.368" rx="78.7022" ry="18"/>
<text text-anchor="middle" x="232.931" y="-108.168" font-family="Times,serif" font-size="14.00">IntermediateLayers</text>
</g>
<!-- d1&#45;&gt;IntermediateLayers -->
<g id="edge1" class="edge"><title>d1&#45;&gt;IntermediateLayers</title>
<path fill="none" stroke="black" d="M232.931,-51.0158C232.931,-61.375 232.931,-73.4742 232.931,-84.1081"/>
<polygon fill="black" stroke="black" points="229.431,-84.1348 232.931,-94.1348 236.431,-84.1349 229.431,-84.1348"/>
</g>
<!-- d2 -->
<g id="node2" class="node"><title>d2</title>
<ellipse fill="#00bbff" stroke="black" cx="67.9313" cy="-112.368" rx="67.8626" ry="25.4118"/>
<text text-anchor="middle" x="67.9313" y="-115.168" font-family="Times,serif" font-size="14.00">DataSequence</text>
<text text-anchor="middle" x="67.9313" y="-101.168" font-family="Times,serif" font-size="14.00">(label1)</text>
</g>
<!-- LossLayer1 -->
<g id="node5" class="node"><title>LossLayer1</title>
<ellipse fill="none" stroke="black" cx="88.9313" cy="-191.823" rx="51.7088" ry="18"/>
<text text-anchor="middle" x="88.9313" y="-187.623" font-family="Times,serif" font-size="14.00">LossLayer1</text>
</g>
<!-- d2&#45;&gt;LossLayer1 -->
<g id="edge4" class="edge"><title>d2&#45;&gt;LossLayer1</title>
<path fill="none" stroke="black" d="M74.5758,-137.875C76.8311,-146.193 79.362,-155.528 81.6634,-164.017"/>
<polygon fill="black" stroke="black" points="78.3279,-165.09 84.3227,-173.825 85.084,-163.258 78.3279,-165.09"/>
</g>
<!-- d3 -->
<g id="node3" class="node"><title>d3</title>
<ellipse fill="#00bbff" stroke="black" cx="397.931" cy="-112.368" rx="67.8626" ry="25.4118"/>
<text text-anchor="middle" x="397.931" y="-115.168" font-family="Times,serif" font-size="14.00">DataSequence</text>
<text text-anchor="middle" x="397.931" y="-101.168" font-family="Times,serif" font-size="14.00">(label2)</text>
</g>
<!-- LossLayer2 -->
<g id="node6" class="node"><title>LossLayer2</title>
<ellipse fill="none" stroke="black" cx="314.931" cy="-191.823" rx="51.7088" ry="18"/>
<text text-anchor="middle" x="314.931" y="-187.623" font-family="Times,serif" font-size="14.00">LossLayer2</text>
</g>
<!-- d3&#45;&gt;LossLayer2 -->
<g id="edge5" class="edge"><title>d3&#45;&gt;LossLayer2</title>
<path fill="none" stroke="black" d="M373.477,-136.188C362.78,-146.17 350.254,-157.86 339.54,-167.859"/>
<polygon fill="black" stroke="black" points="337.033,-165.411 332.11,-174.792 341.809,-170.528 337.033,-165.411"/>
</g>
<!-- IntermediateLayers&#45;&gt;LossLayer1 -->
<g id="edge2" class="edge"><title>IntermediateLayers&#45;&gt;LossLayer1</title>
<path fill="none" stroke="black" d="M203.443,-129.229C180.679,-141.473 149.082,-158.469 124.843,-171.507"/>
<polygon fill="black" stroke="black" points="123.097,-168.472 115.948,-176.291 126.413,-174.637 123.097,-168.472"/>
</g>
<!-- IntermediateLayers&#45;&gt;LossLayer2 -->
<g id="edge3" class="edge"><title>IntermediateLayers&#45;&gt;LossLayer2</title>
<path fill="none" stroke="black" d="M250.724,-130.174C262.27,-141.081 277.478,-155.445 290.194,-167.457"/>
<polygon fill="black" stroke="black" points="288.062,-170.258 297.735,-174.58 292.869,-165.169 288.062,-170.258"/>
</g>
</g>
</svg>
