<?xml version="1.0" encoding="UTF-8" standalone="no"?>
<!DOCTYPE svg PUBLIC "-//W3C//DTD SVG 1.1//EN"
 "http://www.w3.org/Graphics/SVG/1.1/DTD/svg11.dtd">
<!-- Generated by graphviz version 2.38.0 (20140413.2041)
 -->
<!-- Title: Network Pages: 1 -->
<svg width="395pt" height="131pt"
 viewBox="0.00 0.00 395.47 130.91" xmlns="http://www.w3.org/2000/svg" xmlns:xlink="http://www.w3.org/1999/xlink">
<g id="graph0" class="graph" transform="scale(1 1) rotate(0) translate(4 126.912)">
<title>Network</title>
<polygon fill="white" stroke="none" points="-4,4 -4,-126.912 391.466,-126.912 391.466,4 -4,4"/>
<!-- d0 -->
<g id="node1" class="node"><title>d0</title>
<ellipse fill="#00ffff" stroke="black" cx="116.733" cy="-25.4558" rx="67.8626" ry="25.4118"/>
<text text-anchor="middle" x="116.733" y="-28.2558" font-family="Times,serif" font-size="14.00">DataSequence</text>
<text text-anchor="middle" x="116.733" y="-14.2558" font-family="Times,serif" font-size="14.00">(train)</text>
</g>
<!-- d2 -->
<g id="node3" class="node"><title>d2</title>
<ellipse fill="#7fffd4" stroke="black" cx="58.7329" cy="-104.912" rx="58.9668" ry="18"/>
<text text-anchor="middle" x="58.7329" y="-100.712" font-family="Times,serif" font-size="14.00">DataMapping</text>
</g>
<!-- d0&#45;&gt;d2 -->
<g id="edge1" class="edge"><title>d0&#45;&gt;d2</title>
<path fill="none" stroke="black" d="M99.0159,-50.116C92.1803,-59.2446 84.3538,-69.6964 77.4285,-78.9448"/>
<polygon fill="black" stroke="black" points="74.5685,-76.9249 71.3762,-87.0273 80.1717,-81.1206 74.5685,-76.9249"/>
</g>
<!-- d3 -->
<g id="node4" class="node"><title>d3</title>
<ellipse fill="#7fffd4" stroke="black" cx="193.733" cy="-104.912" rx="58.9668" ry="18"/>
<text text-anchor="middle" x="193.733" y="-100.712" font-family="Times,serif" font-size="14.00">DataMapping</text>
</g>
<!-- d0&#45;&gt;d3 -->
<g id="edge2" class="edge"><title>d0&#45;&gt;d3</title>
<path fill="none" stroke="black" d="M139.835,-49.6952C149.343,-59.259 160.351,-70.3316 169.93,-79.9676"/>
<polygon fill="black" stroke="black" points="167.718,-82.7067 177.25,-87.3311 172.682,-77.7716 167.718,-82.7067"/>
</g>
<!-- d4 -->
<g id="node5" class="node"><title>d4</title>
<ellipse fill="#7fffd4" stroke="black" cx="328.733" cy="-104.912" rx="58.9668" ry="18"/>
<text text-anchor="middle" x="328.733" y="-100.712" font-family="Times,serif" font-size="14.00">DataMapping</text>
</g>
<!-- d0&#45;&gt;d4 -->
<g id="edge3" class="edge"><title>d0&#45;&gt;d4</title>
<path fill="none" stroke="black" d="M164.046,-43.742C199.518,-56.7019 247.793,-74.3396 282.901,-87.1667"/>
<polygon fill="black" stroke="black" points="281.839,-90.5049 292.433,-90.6492 284.241,-83.9299 281.839,-90.5049"/>
</g>
<!-- d1 -->
<g id="node2" class="node"><title>d1</title>
<ellipse fill="none" stroke="black" stroke-dasharray="5,2" cx="270.733" cy="-25.4558" rx="67.8626" ry="25.4118"/>
<text text-anchor="middle" x="270.733" y="-28.2558" font-family="Times,serif" font-size="14.00">DataSequence</text>
<text text-anchor="middle" x="270.733" y="-14.2558" font-family="Times,serif" font-size="14.00">(test)</text>
</g>
<!-- d1&#45;&gt;d2 -->
<g id="edge4" class="edge"><title>d1&#45;&gt;d2</title>
<path fill="none" stroke="black" stroke-dasharray="5,2" d="M223.42,-43.742C187.948,-56.7019 139.673,-74.3396 104.565,-87.1667"/>
<polygon fill="black" stroke="black" points="103.225,-83.9299 95.033,-90.6492 105.627,-90.5049 103.225,-83.9299"/>
</g>
<!-- d1&#45;&gt;d3 -->
<g id="edge5" class="edge"><title>d1&#45;&gt;d3</title>
<path fill="none" stroke="black" stroke-dasharray="5,2" d="M247.63,-49.6952C238.123,-59.259 227.115,-70.3316 217.536,-79.9676"/>
<polygon fill="black" stroke="black" points="214.784,-77.7716 210.216,-87.3311 219.748,-82.7067 214.784,-77.7716"/>
</g>
<!-- d1&#45;&gt;d4 -->
<g id="edge6" class="edge"><title>d1&#45;&gt;d4</title>
<path fill="none" stroke="black" stroke-dasharray="5,2" d="M288.45,-50.116C295.286,-59.2446 303.112,-69.6964 310.037,-78.9448"/>
<polygon fill="black" stroke="black" points="307.294,-81.1206 316.09,-87.0273 312.897,-76.9249 307.294,-81.1206"/>
</g>
</g>
</svg>
