<?xml version="1.0" encoding="UTF-8" standalone="no"?>
<!DOCTYPE svg PUBLIC "-//W3C//DTD SVG 1.1//EN"
 "http://www.w3.org/Graphics/SVG/1.1/DTD/svg11.dtd">
<!-- Generated by graphviz version 2.38.0 (20140413.2041)
 -->
<!-- Title: Network Pages: 1 -->
<svg width="395pt" height="131pt"
 viewBox="0.00 0.00 395.47 130.91" xmlns="http://www.w3.org/2000/svg" xmlns:xlink="http://www.w3.org/1999/xlink">
<g id="graph0" class="graph" transform="scale(1 1) rotate(0) translate(4 126.912)">
<title>Network</title>
<polygon fill="white" stroke="none" points="-4,4 -4,-126.912 391.466,-126.912 391.466,4 -4,4"/>
<!-- d0 -->
<g id="node1" class="node"><title>d0</title>
<ellipse fill="#00bbff" stroke="black" cx="193.733" cy="-25.4558" rx="79.4173" ry="25.4118"/>
<text text-anchor="middle" x="193.733" y="-28.2558" font-family="Times,serif" font-size="14.00">DataSequence</text>
<text text-anchor="middle" x="193.733" y="-14.2558" font-family="Times,serif" font-size="14.00">(source: random)</text>
</g>
<!-- d1 -->
<g id="node2" class="node"><title>d1</title>
<ellipse fill="green" stroke="black" cx="58.7329" cy="-104.912" rx="58.9668" ry="18"/>
<text text-anchor="middle" x="58.7329" y="-100.712" font-family="Times,serif" font-size="14.00">DataMapping</text>
</g>
<!-- d0&#45;&gt;d1 -->
<g id="edge1" class="edge"><title>d0&#45;&gt;d1</title>
<path fill="none" stroke="black" d="M156.128,-48.0316C136.731,-59.1608 113.206,-72.6581 94.1359,-83.5993"/>
<polygon fill="black" stroke="black" points="92.3769,-80.5734 85.4449,-88.5858 95.8605,-86.645 92.3769,-80.5734"/>
</g>
<!-- d2 -->
<g id="node3" class="node"><title>d2</title>
<ellipse fill="green" stroke="black" cx="193.733" cy="-104.912" rx="58.9668" ry="18"/>
<text text-anchor="middle" x="193.733" y="-100.712" font-family="Times,serif" font-size="14.00">DataMapping</text>
</g>
<!-- d0&#45;&gt;d2 -->
<g id="edge2" class="edge"><title>d0&#45;&gt;d2</title>
<path fill="none" stroke="black" d="M193.733,-50.9634C193.733,-58.9757 193.733,-67.931 193.733,-76.1646"/>
<polygon fill="black" stroke="black" points="190.233,-76.4325 193.733,-86.4325 197.233,-76.4325 190.233,-76.4325"/>
</g>
<!-- d3 -->
<g id="node4" class="node"><title>d3</title>
<ellipse fill="green" stroke="black" cx="328.733" cy="-104.912" rx="58.9668" ry="18"/>
<text text-anchor="middle" x="328.733" y="-100.712" font-family="Times,serif" font-size="14.00">DataMapping</text>
</g>
<!-- d0&#45;&gt;d3 -->
<g id="edge3" class="edge"><title>d0&#45;&gt;d3</title>
<path fill="none" stroke="black" d="M231.338,-48.0316C250.735,-59.1608 274.26,-72.6581 293.33,-83.5993"/>
<polygon fill="black" stroke="black" points="291.605,-86.645 302.021,-88.5858 295.089,-80.5734 291.605,-86.645"/>
</g>
</g>
</svg>
