<?xml version="1.0" encoding="UTF-8" standalone="no"?>
<!DOCTYPE svg PUBLIC "-//W3C//DTD SVG 1.1//EN"
 "http://www.w3.org/Graphics/SVG/1.1/DTD/svg11.dtd">
<!-- Generated by graphviz version 2.38.0 (20140413.2041)
 -->
<!-- Title: IndirectionExample Pages: 1 -->
<svg width="356pt" height="216pt"
 viewBox="0.00 0.00 355.71 216.00" xmlns="http://www.w3.org/2000/svg" xmlns:xlink="http://www.w3.org/1999/xlink">
<g id="graph0" class="graph" transform="scale(1 1) rotate(0) translate(4 212)">
<title>IndirectionExample</title>
<polygon fill="white" stroke="none" points="-4,4 -4,-212 351.708,-212 351.708,4 -4,4"/>
<!-- ManyOtherLayers -->
<g id="node1" class="node"><title>ManyOtherLayers</title>
<polygon fill="none" stroke="black" points="329.983,-122 211.726,-122 211.726,-86 329.983,-86 329.983,-122"/>
<text text-anchor="middle" x="270.854" y="-99.8" font-family="Times,serif" font-size="14.00">ManyOtherLayers</text>
</g>
<!-- LossLayer1 -->
<g id="node4" class="node"><title>LossLayer1</title>
<ellipse fill="none" stroke="black" cx="51.8542" cy="-190" rx="51.7088" ry="18"/>
<text text-anchor="middle" x="51.8542" y="-185.8" font-family="Times,serif" font-size="14.00">LossLayer1</text>
</g>
<!-- ManyOtherLayers&#45;&gt;LossLayer1 -->
<g id="edge6" class="edge"><title>ManyOtherLayers&#45;&gt;LossLayer1</title>
<path fill="none" stroke="black" d="M234.126,-122.097C206.042,-135.123 170.96,-151.275 163.854,-154 143.433,-161.831 120.441,-169.249 100.627,-175.224"/>
<polygon fill="black" stroke="black" points="99.4708,-171.916 90.8846,-178.123 101.468,-178.625 99.4708,-171.916"/>
</g>
<!-- LossLayer2 -->
<g id="node5" class="node"><title>LossLayer2</title>
<ellipse fill="none" stroke="black" cx="295.854" cy="-190" rx="51.7088" ry="18"/>
<text text-anchor="middle" x="295.854" y="-185.8" font-family="Times,serif" font-size="14.00">LossLayer2</text>
</g>
<!-- ManyOtherLayers&#45;&gt;LossLayer2 -->
<g id="edge7" class="edge"><title>ManyOtherLayers&#45;&gt;LossLayer2</title>
<path fill="none" stroke="black" d="M276.034,-122.405C279.442,-133.856 283.971,-149.074 287.84,-162.071"/>
<polygon fill="black" stroke="black" points="284.559,-163.319 290.766,-171.905 291.268,-161.322 284.559,-163.319"/>
</g>
<!-- LossLayer3 -->
<g id="node6" class="node"><title>LossLayer3</title>
<ellipse fill="none" stroke="black" cx="173.854" cy="-190" rx="51.7088" ry="18"/>
<text text-anchor="middle" x="173.854" y="-185.8" font-family="Times,serif" font-size="14.00">LossLayer3</text>
</g>
<!-- ManyOtherLayers&#45;&gt;LossLayer3 -->
<g id="edge8" class="edge"><title>ManyOtherLayers&#45;&gt;LossLayer3</title>
<path fill="none" stroke="black" d="M266.451,-122.181C263.073,-132.479 257.494,-145.233 248.854,-154 240.978,-161.992 230.928,-168.366 220.763,-173.364"/>
<polygon fill="black" stroke="black" points="219.123,-170.264 211.454,-177.574 222.008,-176.642 219.123,-170.264"/>
</g>
<!-- DataLayer -->
<g id="node2" class="node"><title>DataLayer</title>
<ellipse fill="none" stroke="black" cx="196.854" cy="-18" rx="47.3392" ry="18"/>
<text text-anchor="middle" x="196.854" y="-13.8" font-family="Times,serif" font-size="14.00">DataLayer</text>
</g>
<!-- DataLayer&#45;&gt;ManyOtherLayers -->
<g id="edge1" class="edge"><title>DataLayer&#45;&gt;ManyOtherLayers</title>
<path fill="none" stroke="black" d="M215.326,-34.7053C221.766,-40.5142 228.873,-47.3167 234.854,-54 241.23,-61.1234 247.6,-69.339 253.17,-76.9826"/>
<polygon fill="black" stroke="black" points="250.646,-79.4728 259.295,-85.5931 256.351,-75.4155 250.646,-79.4728"/>
<text text-anchor="middle" x="257.513" y="-56.8" font-family="Times,serif" font-size="14.00" fill="blue">data</text>
</g>
<!-- IndirectionLayer -->
<g id="node3" class="node"><title>IndirectionLayer</title>
<ellipse fill="none" stroke="black" cx="123.854" cy="-104" rx="69.5477" ry="18"/>
<text text-anchor="middle" x="123.854" y="-99.8" font-family="Times,serif" font-size="14.00">IndirectionLayer</text>
</g>
<!-- DataLayer&#45;&gt;IndirectionLayer -->
<g id="edge2" class="edge"><title>DataLayer&#45;&gt;IndirectionLayer</title>
<path fill="none" stroke="black" d="M181.087,-35.1457C175.504,-40.996 169.24,-47.712 163.719,-54 157.024,-61.6257 149.961,-70.1405 143.67,-77.9053"/>
<polygon fill="black" stroke="black" points="140.735,-75.9709 137.201,-85.9591 146.192,-80.3545 140.735,-75.9709"/>
<text text-anchor="middle" x="199.422" y="-56.8" font-family="Times,serif" font-size="14.00" fill="blue">label (index)</text>
</g>
<!-- IndirectionLayer&#45;&gt;LossLayer1 -->
<g id="edge3" class="edge"><title>IndirectionLayer&#45;&gt;LossLayer1</title>
<path fill="none" stroke="black" d="M109.284,-121.999C98.7043,-134.342 84.2423,-151.214 72.478,-164.939"/>
<polygon fill="black" stroke="black" points="69.7633,-162.728 65.9128,-172.598 75.0782,-167.283 69.7633,-162.728"/>
<text text-anchor="middle" x="108.013" y="-142.8" font-family="Times,serif" font-size="14.00" fill="blue">labe1</text>
</g>
<!-- IndirectionLayer&#45;&gt;LossLayer2 -->
<g id="edge4" class="edge"><title>IndirectionLayer&#45;&gt;LossLayer2</title>
<path fill="none" stroke="black" d="M155.002,-120.212C183.866,-134.308 226.878,-155.314 257.772,-170.402"/>
<polygon fill="black" stroke="black" points="256.42,-173.637 266.942,-174.88 259.492,-167.347 256.42,-173.637"/>
<text text-anchor="middle" x="237.958" y="-142.8" font-family="Times,serif" font-size="14.00" fill="blue">label2</text>
</g>
<!-- IndirectionLayer&#45;&gt;LossLayer3 -->
<g id="edge5" class="edge"><title>IndirectionLayer&#45;&gt;LossLayer3</title>
<path fill="none" stroke="black" d="M133.972,-121.999C141.067,-133.918 150.676,-150.06 158.684,-163.514"/>
<polygon fill="black" stroke="black" points="155.799,-165.511 163.922,-172.313 161.814,-161.93 155.799,-165.511"/>
<text text-anchor="middle" x="168.958" y="-142.8" font-family="Times,serif" font-size="14.00" fill="blue">label3</text>
</g>
</g>
</svg>
