<?xml version="1.0" encoding="UTF-8" standalone="no"?>
<!DOCTYPE svg PUBLIC "-//W3C//DTD SVG 1.1//EN"
 "http://www.w3.org/Graphics/SVG/1.1/DTD/svg11.dtd">
<!-- Generated by graphviz version 2.38.0 (20140413.2041)
 -->
<!-- Title: IndirectionExample Pages: 1 -->
<svg width="284pt" height="216pt"
 viewBox="0.00 0.00 283.84 216.00" xmlns="http://www.w3.org/2000/svg" xmlns:xlink="http://www.w3.org/1999/xlink">
<g id="graph0" class="graph" transform="scale(1 1) rotate(0) translate(4 212)">
<title>IndirectionExample</title>
<polygon fill="white" stroke="none" points="-4,4 -4,-212 279.838,-212 279.838,4 -4,4"/>
<!-- ManyOtherLayers -->
<g id="node1" class="node"><title>ManyOtherLayers</title>
<polygon fill="none" stroke="black" points="118.442,-122 0.185453,-122 0.185453,-86 118.442,-86 118.442,-122"/>
<text text-anchor="middle" x="59.314" y="-99.8" font-family="Times,serif" font-size="14.00">ManyOtherLayers</text>
</g>
<!-- CrossEntropyLossLayer -->
<g id="node4" class="node"><title>CrossEntropyLossLayer</title>
<ellipse fill="none" stroke="black" cx="146.314" cy="-190" rx="96.1431" ry="18"/>
<text text-anchor="middle" x="146.314" y="-185.8" font-family="Times,serif" font-size="14.00">CrossEntropyLossLayer</text>
</g>
<!-- ManyOtherLayers&#45;&gt;CrossEntropyLossLayer -->
<g id="edge4" class="edge"><title>ManyOtherLayers&#45;&gt;CrossEntropyLossLayer</title>
<path fill="none" stroke="black" d="M77.3404,-122.405C90.1067,-134.731 107.393,-151.421 121.466,-165.008"/>
<polygon fill="black" stroke="black" points="119.279,-167.763 128.904,-172.191 124.141,-162.727 119.279,-167.763"/>
</g>
<!-- IndirectionLayer -->
<g id="node2" class="node"><title>IndirectionLayer</title>
<ellipse fill="gray" stroke="black" cx="206.314" cy="-104" rx="69.5477" ry="18"/>
<text text-anchor="middle" x="206.314" y="-99.8" font-family="Times,serif" font-size="14.00">IndirectionLayer</text>
</g>
<!-- IndirectionLayer&#45;&gt;CrossEntropyLossLayer -->
<g id="edge3" class="edge"><title>IndirectionLayer&#45;&gt;CrossEntropyLossLayer</title>
<path fill="none" stroke="black" d="M194.172,-121.999C185.633,-133.954 174.059,-150.158 164.432,-163.635"/>
<polygon fill="black" stroke="black" points="161.402,-161.855 158.438,-172.027 167.098,-165.924 161.402,-161.855"/>
<text text-anchor="middle" x="202.454" y="-142.8" font-family="Times,serif" font-size="14.00" fill="blue">big blob</text>
</g>
<!-- DataLayer -->
<g id="node3" class="node"><title>DataLayer</title>
<ellipse fill="none" stroke="black" cx="144.314" cy="-18" rx="47.3392" ry="18"/>
<text text-anchor="middle" x="144.314" y="-13.8" font-family="Times,serif" font-size="14.00">DataLayer</text>
</g>
<!-- DataLayer&#45;&gt;ManyOtherLayers -->
<g id="edge1" class="edge"><title>DataLayer&#45;&gt;ManyOtherLayers</title>
<path fill="none" stroke="black" d="M127.925,-35.196C115.47,-47.505 98.1288,-64.6418 83.9972,-78.6072"/>
<polygon fill="black" stroke="black" points="81.1804,-76.4701 76.5278,-85.9887 86.1008,-81.4491 81.1804,-76.4701"/>
<text text-anchor="middle" x="117.973" y="-56.8" font-family="Times,serif" font-size="14.00" fill="blue">data</text>
</g>
<!-- DataLayer&#45;&gt;IndirectionLayer -->
<g id="edge2" class="edge"><title>DataLayer&#45;&gt;IndirectionLayer</title>
<path fill="none" stroke="black" d="M156.563,-35.5957C165.506,-47.7118 177.784,-64.3459 187.904,-78.0578"/>
<polygon fill="black" stroke="black" points="185.123,-80.184 193.878,-86.1513 190.755,-76.027 185.123,-80.184"/>
<text text-anchor="middle" x="213.881" y="-56.8" font-family="Times,serif" font-size="14.00" fill="blue">label (index)</text>
</g>
</g>
</svg>
